# xmcd
#
# Track frame offsets: 
#        150
#        14120
#        30248
#        48600
#        65895
#        83257
#        97646
#        117794
#        128075
#        149279
#        167795
#        184360
#        198265
#        215698
#        231331
#        242381
#
# Disc length: 3535 seconds
#
# Revision: 0
# Processed by: cddbd v1.5.2PL0 Copyright (c) Steve Scherf et al.
# Submitted via: ExactAudioCopyFreeDBPlugin 1.0
#
DISCID=d80dcd10
DTITLE=The Sorentinos - Way Out
DYEAR=2005
DGENRE=Blues
TTITLE0=Saving Grace
TTITLE1=Black Leather Jacket
TTITLE2=Uniform
TTITLE3=Somebody
TTITLE4=Dreaming BB King
TTITLE5=Spark
TTITLE6=British Blues
TTITLE7=Hold Me Close
TTITLE8=The Moon
TTITLE9=What Would I Do
TTITLE10=Up Ain't Worth The Down
TTITLE11=Gone In Nine
TTITLE12=List Of Things
TTITLE13=Down
TTITLE14=Guinness
TTITLE15=Meet My Maker
EXTD=
EXTT0=
EXTT1=
EXTT2=
EXTT3=
EXTT4=
EXTT5=
EXTT6=
EXTT7=
EXTT8=
EXTT9=
EXTT10=
EXTT11=
EXTT12=
EXTT13=
EXTT14=
EXTT15=
PLAYORDER=
